<?xml version="1.0" encoding="utf-8" ?>
<svg baseProfile="full" height="1061.25" version="1.1" width="2591.25" xmlns="http://www.w3.org/2000/svg" xmlns:ev="http://www.w3.org/2001/xml-events" xmlns:xlink="http://www.w3.org/1999/xlink"><defs /><rect fill="white" height="1061.25" width="2591.25" x="0" y="0" /><path d="M446.25,217.5 m-5.0,42.5 l-43.75,46.25 -63.75,45.0 l-23.75,52.5 -13.75,53.75 l-21.25,53.75 -73.75,53.75 l-77.5,53.75 -67.5,53.75 l-31.25,53.75 37.5,52.5 l62.5,51.25 76.25,50.0 l80.0,46.25 80.0,48.75 l81.25,41.25 80.0,20.0 l81.25,-28.75 m81.25,-43.75 m81.25,-53.75 m81.25,-53.75 m81.25,-53.75 m81.25,-53.75 m81.25,-53.75 m81.25,-53.75 m81.25,-53.75 m81.25,-53.75 m81.25,-53.75 m81.25,-53.75 m81.25,-53.75 m81.25,-53.75 m81.25,-52.5 m81.25,-52.5 m81.25,-50.0 m80.0,-50.0 l80.0,-32.5 m77.5,-43.75 l76.25,18.75 75.0,-31.25 l70.0,43.75 72.5,-26.25 l62.5,46.25 68.75,-16.25 " fill="none" stroke="black" stroke-width="1" /></svg>