<?xml version="1.0" encoding="utf-8" ?>
<svg baseProfile="full" height="375.0" version="1.1" width="300.0" xmlns="http://www.w3.org/2000/svg" xmlns:ev="http://www.w3.org/2001/xml-events" xmlns:xlink="http://www.w3.org/1999/xlink"><defs /><rect fill="white" height="375.0" width="300.0" x="0" y="0" /><path d="M96.25,266.25 m-15.0,15.0 m-50.0,-55.0 m42.5,-55.0 m-48.75,-55.0 l13.75,-52.5 7.5,-38.75 l-15.0,36.25 -3.75,5.0 l0.0,2.5 5.0,2.5 l-6.25,-1.25 5.0,5.0 l3.75,0.0 8.75,-6.25 l1.25,17.5 11.25,-1.25 l-2.5,-1.25 18.75,0.0 l1.25,-5.0 -1.25,8.75 l6.25,5.0 1.25,1.25 l11.25,10.0 0.0,6.25 l7.5,3.75 3.75,3.75 l1.25,16.25 15.0,13.75 l12.5,7.5 5.0,10.0 l7.5,2.5 -1.25,0.0 l15.0,2.5 6.25,13.75 l-1.25,15.0 8.75,8.75 l3.75,5.0 11.25,12.5 l5.0,2.5 8.75,1.25 l8.75,7.5 0.0,5.0 l-2.5,15.0 2.5,8.75 l0.0,10.0 8.75,12.5 l7.5,6.25 17.5,6.25 l12.5,-5.0 -16.25,-12.5 l-5.0,5.0 -3.75,5.0 l2.5,20.0 8.75,6.25 l8.75,6.25 8.75,0.0 l0.0,-22.5 -20.0,-5.0 l-7.5,3.75 -3.75,7.5 l7.5,15.0 8.75,10.0 l15.0,7.5 11.25,-10.0 l-17.5,-17.5 -11.25,1.25 l-5.0,1.25 3.75,17.5 l7.5,3.75 7.5,7.5 l15.0,5.0 5.0,-26.25 l-25.0,-18.75 -10.0,-5.0 l-3.75,-1.25 7.5,12.5 l10.0,7.5 10.0,6.25 l8.75,-20.0 -16.25,-33.75 l-22.5,-15.0 -10.0,-7.5 l1.25,2.5 8.75,6.25 l7.5,7.5 13.75,7.5 l3.75,-27.5 -25.0,-27.5 l-10.0,-7.5 -5.0,-5.0 l6.25,15.0 10.0,8.75 l7.5,7.5 11.25,-10.0 l-7.5,-33.75 -28.75,-21.25 l-13.75,-10.0 -3.75,-1.25 l7.5,13.75 6.25,13.75 l10.0,11.25 1.25,-13.75 l-32.5,-25.0 -26.25,-17.5 l-18.75,-16.25 -2.5,5.0 l2.5,5.0 1.25,8.75 l-1.25,7.5 -25.0,-7.5 l-31.25,-17.5 -21.25,-15.0 l-13.75,-13.75 -1.25,10.0 l1.25,10.0 -1.25,7.5 l-1.25,6.25 -3.75,7.5 l5.0,5.0 1.25,5.0 l0.0,6.25 2.5,5.0 l1.25,7.5 0.0,7.5 l-1.25,8.75 5.0,6.25 l1.25,7.5 1.25,5.0 l1.25,6.25 0.0,5.0 l0.0,6.25 1.25,6.25 l-3.75,5.0 2.5,2.5 l-2.5,5.0 0.0,3.75 l-1.25,3.75 -1.25,5.0 l-1.25,5.0 -7.5,1.25 l0.0,0.0 " fill="none" stroke="black" stroke-width="1" /></svg>