<?xml version="1.0" encoding="utf-8" ?>
<svg baseProfile="full" height="1442.5" version="1.1" width="1497.5" xmlns="http://www.w3.org/2000/svg" xmlns:ev="http://www.w3.org/2001/xml-events" xmlns:xlink="http://www.w3.org/1999/xlink"><defs /><rect fill="white" height="1442.5" width="1497.5" x="0" y="0" /><path d="M1370.0,106.25 m7.5,-20.0 m27.5,-18.75 m66.25,-42.5 l1.25,16.25 -42.5,21.25 l12.5,16.25 -11.25,-11.25 l-8.75,-22.5 -1.25,-10.0 l-13.75,28.75 -43.75,50.0 l35.0,-23.75 41.25,-1.25 l-41.25,5.0 6.25,8.75 l7.5,-5.0 -31.25,45.0 l-70.0,53.75 43.75,-42.5 l51.25,-3.75 -20.0,6.25 l0.0,2.5 2.5,-18.75 l-25.0,33.75 -73.75,52.5 l56.25,-46.25 60.0,0.0 l-10.0,5.0 10.0,5.0 l2.5,-27.5 -18.75,16.25 l-73.75,52.5 53.75,-48.75 l58.75,-6.25 -12.5,-1.25 l7.5,15.0 -26.25,-30.0 m-57.5,42.5 l-78.75,53.75 48.75,-50.0 l41.25,-1.25 -11.25,8.75 l2.5,18.75 -21.25,-26.25 m-52.5,45.0 l-78.75,53.75 43.75,-50.0 l23.75,-5.0 -22.5,6.25 l2.5,27.5 -10.0,-22.5 m-60.0,50.0 l-77.5,53.75 45.0,-48.75 l16.25,-3.75 -12.5,11.25 l-5.0,25.0 -15.0,-27.5 m-56.25,47.5 l-77.5,53.75 40.0,-48.75 l11.25,-2.5 -7.5,10.0 l-3.75,22.5 -20.0,-31.25 m-62.5,48.75 l-77.5,53.75 40.0,-48.75 l7.5,-1.25 -2.5,5.0 l1.25,20.0 -13.75,-37.5 m-57.5,47.5 l-73.75,53.75 46.25,-48.75 l15.0,22.5 13.75,26.25 l-2.5,25.0 -8.75,-18.75 m-65.0,52.5 l-70.0,53.75 40.0,-26.25 l2.5,18.75 5.0,5.0 l2.5,6.25 2.5,-12.5 m-63.75,52.5 l-63.75,53.75 33.75,-18.75 l-1.25,17.5 3.75,2.5 l1.25,2.5 3.75,-11.25 m-62.5,52.5 l-63.75,53.75 33.75,-16.25 l0.0,13.75 3.75,5.0 l3.75,2.5 1.25,-8.75 m-61.25,52.5 l-63.75,53.75 35.0,-16.25 l0.0,13.75 1.25,3.75 l1.25,5.0 3.75,-13.75 m-62.5,52.5 l-63.75,53.75 33.75,-16.25 l-1.25,15.0 2.5,2.5 l1.25,3.75 2.5,-13.75 m-61.25,52.5 l-65.0,53.75 35.0,-17.5 l0.0,13.75 3.75,2.5 l1.25,2.5 2.5,-11.25 m-60.0,52.5 l-63.75,53.75 35.0,-16.25 l0.0,13.75 0.0,2.5 l-1.25,3.75 3.75,-16.25 m-60.0,52.5 l-65.0,53.75 33.75,-17.5 l1.25,15.0 2.5,5.0 l-1.25,5.0 2.5,-12.5 m-60.0,52.5 l-65.0,53.75 33.75,-17.5 l1.25,15.0 1.25,3.75 l0.0,3.75 " fill="none" stroke="black" stroke-width="1" /></svg>