<?xml version="1.0" encoding="utf-8" ?>
<svg baseProfile="full" height="194260.0" version="1.1" width="179770.0" xmlns="http://www.w3.org/2000/svg" xmlns:ev="http://www.w3.org/2001/xml-events" xmlns:xlink="http://www.w3.org/1999/xlink"><defs /><rect fill="white" height="194260.0" width="179770.0" x="0" y="0" /><path d="M179745.0,194235.0 m-683.75,-776.25 l-700.0,-776.25 -708.75,-775.0 l-713.75,-773.75 -716.25,-773.75 l-716.25,-773.75 -716.25,-772.5 l-716.25,-772.5 -716.25,-772.5 l-716.25,-772.5 -716.25,-772.5 l-716.25,-772.5 -716.25,-773.75 l-716.25,-773.75 -716.25,-773.75 l-716.25,-773.75 -716.25,-773.75 l-716.25,-773.75 -716.25,-773.75 l-716.25,-773.75 -716.25,-773.75 l-716.25,-773.75 -716.25,-773.75 l-716.25,-773.75 -716.25,-773.75 l-716.25,-773.75 -716.25,-773.75 l-716.25,-773.75 -716.25,-773.75 l-716.25,-773.75 -716.25,-773.75 l-716.25,-773.75 -716.25,-773.75 l-716.25,-773.75 -716.25,-773.75 l-716.25,-773.75 -716.25,-773.75 l-716.25,-773.75 -716.25,-773.75 l-716.25,-773.75 -716.25,-773.75 l-716.25,-773.75 -716.25,-773.75 l-716.25,-773.75 -716.25,-773.75 l-716.25,-773.75 -716.25,-773.75 l-716.25,-773.75 -716.25,-773.75 l-716.25,-773.75 -716.25,-773.75 l-716.25,-773.75 -716.25,-773.75 l-716.25,-773.75 -716.25,-773.75 l-716.25,-773.75 -716.25,-773.75 l-716.25,-773.75 -716.25,-773.75 l-716.25,-773.75 -716.25,-773.75 l-716.25,-773.75 -716.25,-773.75 l-716.25,-773.75 -716.25,-773.75 l-716.25,-773.75 -716.25,-773.75 l-716.25,-773.75 -716.25,-773.75 l-716.25,-773.75 -716.25,-773.75 l-716.25,-773.75 -716.25,-773.75 l-716.25,-773.75 -716.25,-773.75 l-716.25,-773.75 -716.25,-773.75 l-716.25,-773.75 -716.25,-773.75 l-716.25,-773.75 -716.25,-773.75 l-716.25,-773.75 -716.25,-773.75 l-716.25,-773.75 -716.25,-773.75 l-716.25,-773.75 -716.25,-773.75 l-716.25,-773.75 -716.25,-773.75 l-716.25,-773.75 -716.25,-773.75 l-716.25,-773.75 -716.25,-773.75 l-716.25,-773.75 -716.25,-773.75 l-716.25,-773.75 -716.25,-773.75 l-716.25,-773.75 -716.25,-773.75 l-716.25,-773.75 -716.25,-773.75 l-716.25,-773.75 -716.25,-773.75 l-716.25,-773.75 -716.25,-773.75 l-716.25,-773.75 -716.25,-773.75 l-716.25,-773.75 -716.25,-773.75 l-716.25,-773.75 -716.25,-773.75 l-716.25,-773.75 -716.25,-773.75 l-716.25,-773.75 -716.25,-773.75 l-716.25,-773.75 -716.25,-773.75 l-716.25,-773.75 -716.25,-773.75 l-716.25,-773.75 -716.25,-773.75 l-716.25,-773.75 -716.25,-773.75 l-716.25,-773.75 -716.25,-773.75 l-716.25,-773.75 -716.25,-773.75 l-716.25,-773.75 -716.25,-773.75 l-716.25,-773.75 -716.25,-773.75 l-716.25,-773.75 -716.25,-773.75 l-716.25,-773.75 -716.25,-773.75 l-716.25,-773.75 -716.25,-773.75 l-716.25,-773.75 -716.25,-773.75 l-716.25,-773.75 -716.25,-773.75 l-716.25,-773.75 -716.25,-773.75 l-716.25,-773.75 -716.25,-773.75 l-716.25,-773.75 -716.25,-773.75 l-716.25,-773.75 -716.25,-773.75 l-716.25,-773.75 -716.25,-773.75 l-716.25,-773.75 -716.25,-773.75 l-716.25,-773.75 -716.25,-773.75 l-716.25,-773.75 -716.25,-773.75 l-716.25,-773.75 -716.25,-773.75 l-716.25,-773.75 -716.25,-773.75 l-716.25,-773.75 -716.25,-773.75 l-716.25,-773.75 -716.25,-773.75 l-716.25,-773.75 -716.25,-773.75 l-716.25,-773.75 -716.25,-773.75 l-716.25,-773.75 -716.25,-773.75 l-716.25,-773.75 -716.25,-773.75 l-716.25,-773.75 -716.25,-773.75 l-716.25,-773.75 -716.25,-773.75 l-716.25,-773.75 -716.25,-773.75 l-716.25,-773.75 -716.25,-773.75 l-716.25,-773.75 -716.25,-773.75 l-716.25,-773.75 -716.25,-773.75 l-716.25,-773.75 -716.25,-773.75 l-716.25,-773.75 -716.25,-773.75 l-716.25,-773.75 -716.25,-773.75 l-716.25,-773.75 -716.25,-773.75 l-716.25,-773.75 -716.25,-773.75 l-716.25,-773.75 -716.25,-773.75 l-716.25,-773.75 -716.25,-773.75 l-716.25,-773.75 -716.25,-773.75 l-716.25,-773.75 -716.25,-773.75 l-716.25,-773.75 -716.25,-773.75 l-716.25,-773.75 -716.25,-773.75 l-716.25,-773.75 -716.25,-773.75 l-716.25,-773.75 -716.25,-773.75 l-716.25,-773.75 -716.25,-773.75 l-716.25,-773.75 -716.25,-773.75 l-716.25,-773.75 -716.25,-773.75 l-716.25,-773.75 -716.25,-773.75 l-716.25,-773.75 -716.25,-773.75 l-716.25,-773.75 -716.25,-773.75 l-716.25,-773.75 -716.25,-773.75 l-716.25,-773.75 -716.25,-773.75 l-716.25,-773.75 -716.25,-773.75 l-716.25,-773.75 -716.25,-773.75 l-716.25,-773.75 -716.25,-773.75 l-716.25,-773.75 -716.25,-773.75 l-716.25,-773.75 -716.25,-773.75 l-716.25,-773.75 -716.25,-773.75 l-716.25,-773.75 -716.25,-773.75 l-716.25,-773.75 -716.25,-773.75 l-716.25,-773.75 -716.25,-773.75 l-716.25,-773.75 -716.25,-773.75 l-716.25,-773.75 -716.25,-773.75 l-716.25,-773.75 -716.25,-773.75 " fill="none" stroke="black" stroke-width="1" /></svg>