<?xml version="1.0" encoding="utf-8" ?>
<svg baseProfile="full" height="159387.5" version="1.1" width="543586.25" xmlns="http://www.w3.org/2000/svg" xmlns:ev="http://www.w3.org/2001/xml-events" xmlns:xlink="http://www.w3.org/1999/xlink"><defs /><rect fill="white" height="159387.5" width="543586.25" x="0" y="0" /><path d="M543561.25,159362.5 m-980.0,-603.75 l-1102.5,-631.25 -1283.75,-675.0 l-1512.5,-717.5 -1745.0,-722.5 l-1927.5,-690.0 -2041.25,-658.75 l-2105.0,-642.5 -2138.75,-635.0 l-2157.5,-632.5 -2168.75,-632.5 l-2175.0,-632.5 -2178.75,-632.5 l-2181.25,-632.5 -2182.5,-633.75 l-2183.75,-633.75 -2183.75,-633.75 l-2183.75,-633.75 -2185.0,-633.75 l-2185.0,-633.75 -2185.0,-633.75 l-2185.0,-633.75 -2185.0,-633.75 l-2185.0,-633.75 -2185.0,-633.75 l-2185.0,-633.75 -2185.0,-633.75 l-2185.0,-633.75 -2185.0,-633.75 l-2185.0,-633.75 -2185.0,-633.75 l-2185.0,-633.75 -2185.0,-633.75 l-2185.0,-633.75 -2185.0,-633.75 l-2185.0,-633.75 -2185.0,-633.75 l-2185.0,-633.75 -2185.0,-633.75 l-2185.0,-633.75 -2185.0,-633.75 l-2185.0,-633.75 -2185.0,-633.75 l-2185.0,-633.75 -2185.0,-633.75 l-2185.0,-633.75 -2185.0,-633.75 l-2185.0,-633.75 -2185.0,-633.75 l-2185.0,-633.75 -2185.0,-633.75 l-2185.0,-633.75 -2185.0,-633.75 l-2185.0,-633.75 -2185.0,-633.75 l-2185.0,-633.75 -2185.0,-633.75 l-2185.0,-633.75 -2185.0,-633.75 l-2185.0,-633.75 -2185.0,-633.75 l-2185.0,-633.75 -2185.0,-633.75 l-2185.0,-633.75 -2185.0,-633.75 l-2185.0,-633.75 -2185.0,-633.75 l-2185.0,-633.75 -2185.0,-633.75 l-2185.0,-633.75 -2185.0,-633.75 l-2185.0,-633.75 -2185.0,-633.75 l-2185.0,-633.75 -2185.0,-633.75 l-2185.0,-633.75 -2185.0,-633.75 l-2185.0,-633.75 -2185.0,-633.75 l-2185.0,-633.75 -2185.0,-633.75 l-2185.0,-633.75 -2185.0,-633.75 l-2185.0,-633.75 -2185.0,-633.75 l-2185.0,-633.75 -2185.0,-633.75 l-2185.0,-633.75 -2185.0,-633.75 l-2185.0,-633.75 -2185.0,-633.75 l-2185.0,-633.75 -2185.0,-633.75 l-2185.0,-633.75 -2185.0,-633.75 l-2185.0,-633.75 -2185.0,-633.75 l-2185.0,-633.75 -2185.0,-633.75 l-2185.0,-633.75 -2185.0,-633.75 l-2185.0,-633.75 -2185.0,-633.75 l-2185.0,-633.75 -2185.0,-633.75 l-2185.0,-633.75 -2185.0,-633.75 l-2185.0,-633.75 -2185.0,-633.75 l-2185.0,-633.75 -2185.0,-633.75 l-2185.0,-633.75 -2185.0,-633.75 l-2185.0,-633.75 -2185.0,-633.75 l-2185.0,-633.75 -2185.0,-633.75 l-2185.0,-633.75 -2185.0,-633.75 l-2185.0,-633.75 -2185.0,-633.75 l-2185.0,-633.75 -2185.0,-633.75 l-2185.0,-633.75 -2185.0,-633.75 l-2185.0,-633.75 -2185.0,-633.75 l-2185.0,-633.75 -2185.0,-633.75 l-2185.0,-633.75 -2185.0,-633.75 l-2185.0,-633.75 -2185.0,-633.75 l-2185.0,-633.75 -2185.0,-633.75 l-2185.0,-633.75 -2185.0,-633.75 l-2185.0,-633.75 -2185.0,-633.75 l-2185.0,-633.75 -2185.0,-633.75 l-2185.0,-633.75 -2185.0,-633.75 l-2185.0,-633.75 -2185.0,-633.75 l-2185.0,-633.75 -2185.0,-633.75 l-2185.0,-633.75 -2185.0,-633.75 l-2185.0,-633.75 -2185.0,-633.75 l-2185.0,-633.75 -2185.0,-633.75 l-2185.0,-633.75 -2185.0,-633.75 l-2185.0,-633.75 -2185.0,-633.75 l-2185.0,-633.75 -2185.0,-633.75 l-2185.0,-633.75 -2185.0,-633.75 l-2185.0,-633.75 -2185.0,-633.75 l-2185.0,-633.75 -2185.0,-633.75 l-2185.0,-633.75 -2185.0,-633.75 l-2185.0,-633.75 -2185.0,-633.75 l-2185.0,-633.75 -2185.0,-633.75 l-2185.0,-633.75 -2185.0,-633.75 l-2185.0,-633.75 -2185.0,-633.75 l-2185.0,-633.75 -2185.0,-633.75 l-2185.0,-633.75 -2185.0,-633.75 l-2185.0,-633.75 -2185.0,-633.75 l-2185.0,-633.75 -2185.0,-633.75 l-2185.0,-633.75 -2185.0,-633.75 l-2185.0,-633.75 -2185.0,-633.75 l-2185.0,-633.75 -2185.0,-633.75 l-2185.0,-633.75 -2185.0,-633.75 l-2185.0,-633.75 -2185.0,-633.75 l-2185.0,-633.75 -2185.0,-633.75 l-2185.0,-633.75 -2185.0,-633.75 l-2185.0,-633.75 -2185.0,-633.75 l-2185.0,-633.75 -2185.0,-633.75 l-2185.0,-633.75 -2185.0,-633.75 l-2185.0,-633.75 -2185.0,-633.75 l-2185.0,-633.75 -2185.0,-633.75 l-2185.0,-633.75 -2185.0,-633.75 l-2185.0,-633.75 -2185.0,-633.75 l-2185.0,-633.75 -2185.0,-633.75 l-2185.0,-633.75 -2185.0,-633.75 l-2185.0,-633.75 -2185.0,-633.75 l-2185.0,-633.75 -2185.0,-633.75 l-2185.0,-633.75 -2185.0,-633.75 l-2185.0,-633.75 -2185.0,-633.75 l-2185.0,-633.75 -2185.0,-633.75 l-2185.0,-633.75 -2185.0,-633.75 l-2185.0,-633.75 -2185.0,-633.75 l-2185.0,-633.75 -2185.0,-633.75 l-2185.0,-633.75 -2185.0,-633.75 l-2185.0,-633.75 -2185.0,-633.75 l-2185.0,-633.75 -2185.0,-633.75 l-2185.0,-633.75 -2185.0,-633.75 l-2185.0,-633.75 -2185.0,-633.75 l-2185.0,-633.75 -2185.0,-633.75 l-2185.0,-633.75 -2185.0,-633.75 l-2185.0,-633.75 -2185.0,-633.75 l-2185.0,-633.75 -2185.0,-633.75 l-2185.0,-633.75 -2185.0,-633.75 " fill="none" stroke="black" stroke-width="1" /></svg>