<?xml version="1.0" encoding="utf-8" ?>
<svg baseProfile="full" height="472.5" version="1.1" width="780.0" xmlns="http://www.w3.org/2000/svg" xmlns:ev="http://www.w3.org/2001/xml-events" xmlns:xlink="http://www.w3.org/1999/xlink"><defs /><rect fill="white" height="472.5" width="780.0" x="0" y="0" /><path d="M755.0,25 m-5.0,10.0 l-30.0,27.5 -53.75,32.5 l-42.5,26.25 -37.5,20.0 l-35.0,25.0 -25.0,31.25 l-17.5,28.75 -16.25,30.0 l0.0,18.75 5.0,7.5 l-10.0,13.75 -17.5,28.75 l-18.75,35.0 -23.75,36.25 l-40.0,33.75 -50.0,17.5 l-45.0,-15.0 -56.25,-23.75 l-55.0,-16.25 -47.5,-11.25 l-32.5,-10.0 -20.0,-8.75 l-12.5,-8.75 -1.25,-7.5 l0.0,-3.75 -1.25,-2.5 l1.25,-2.5 1.25,-1.25 l-1.25,0.0 -2.5,-1.25 l0.0,-1.25 0.0,-3.75 l-1.25,-1.25 -1.25,-1.25 l1.25,-2.5 2.5,-2.5 l0.0,-2.5 2.5,-3.75 l2.5,-3.75 2.5,-3.75 l2.5,-1.25 5.0,-2.5 l6.25,-2.5 3.75,-1.25 l1.25,-2.5 -2.5,-5.0 l-6.25,-5.0 -7.5,-5.0 l-5.0,-6.25 -6.25,-6.25 l-7.5,-6.25 -7.5,-7.5 l-7.5,-7.5 -8.75,-7.5 l-8.75,-7.5 " fill="none" stroke="black" stroke-width="1" /></svg>