<?xml version="1.0" encoding="utf-8" ?>
<svg baseProfile="full" height="871.25" version="1.1" width="1030.0" xmlns="http://www.w3.org/2000/svg" xmlns:ev="http://www.w3.org/2001/xml-events" xmlns:xlink="http://www.w3.org/1999/xlink"><defs /><rect fill="white" height="871.25" width="1030.0" x="0" y="0" /><path d="M108.75,810.0 m-17.5,36.25 m-66.25,-55.0 m42.5,-55.0 m21.25,-55.0 l27.5,-53.75 17.5,-52.5 l6.25,-52.5 7.5,-51.25 l47.5,-53.75 63.75,-51.25 m28.75,-47.5 m16.25,-23.75 l16.25,-47.5 8.75,-45.0 l-3.75,-41.25 -5.0,-25.0 l3.75,-2.5 31.25,-11.25 l6.25,-5.0 13.75,-5.0 l12.5,2.5 -13.75,-28.75 l3.75,-37.5 0.0,-21.25 l2.5,-2.5 16.25,15.0 l28.75,12.5 6.25,1.25 l10.0,2.5 8.75,0.0 l10.0,-8.75 10.0,0.0 l10.0,11.25 12.5,16.25 l21.25,30.0 25.0,20.0 l8.75,7.5 7.5,2.5 l7.5,1.25 12.5,-5.0 l10.0,1.25 10.0,10.0 l12.5,16.25 22.5,30.0 l22.5,17.5 8.75,6.25 l3.75,0.0 3.75,-1.25 l8.75,-5.0 6.25,2.5 l6.25,6.25 10.0,15.0 l21.25,28.75 21.25,16.25 l8.75,6.25 3.75,1.25 l3.75,-1.25 8.75,-5.0 l5.0,2.5 6.25,3.75 l10.0,8.75 12.5,10.0 l17.5,1.25 13.75,-2.5 l8.75,-7.5 7.5,-6.25 l8.75,-6.25 5.0,2.5 l6.25,2.5 7.5,7.5 l7.5,5.0 12.5,5.0 l7.5,-1.25 5.0,-3.75 l3.75,-3.75 2.5,-2.5 l-1.25,2.5 0.0,-1.25 l2.5,3.75 1.25,0.0 l3.75,1.25 3.75,0.0 l2.5,-2.5 2.5,-1.25 l1.25,-1.25 -2.5,3.75 l0.0,-2.5 2.5,3.75 l1.25,1.25 2.5,0.0 l2.5,0.0 2.5,-1.25 l2.5,-1.25 1.25,-1.25 l-2.5,3.75 0.0,-2.5 l2.5,3.75 1.25,0.0 l1.25,0.0 2.5,0.0 l2.5,-1.25 2.5,-1.25 l1.25,-1.25 -1.25,3.75 l0.0,-2.5 2.5,3.75 l1.25,0.0 2.5,0.0 l2.5,0.0 2.5,-1.25 l2.5,-1.25 1.25,-1.25 l-2.5,3.75 0.0,-2.5 l2.5,3.75 1.25,0.0 l2.5,0.0 2.5,-1.25 l2.5,-1.25 2.5,-1.25 l1.25,-1.25 -2.5,3.75 l0.0,-2.5 2.5,3.75 l1.25,0.0 2.5,0.0 l2.5,0.0 2.5,-1.25 l1.25,-1.25 1.25,-1.25 l-2.5,3.75 0.0,-2.5 l2.5,3.75 1.25,0.0 l2.5,0.0 2.5,0.0 l2.5,-1.25 2.5,-1.25 l1.25,-1.25 -2.5,3.75 l0.0,-2.5 " fill="none" stroke="black" stroke-width="1" /></svg>