<?xml version="1.0" encoding="utf-8" ?>
<svg baseProfile="full" height="252.5" version="1.1" width="402.5" xmlns="http://www.w3.org/2000/svg" xmlns:ev="http://www.w3.org/2001/xml-events" xmlns:xlink="http://www.w3.org/1999/xlink"><defs /><rect fill="white" height="252.5" width="402.5" x="0" y="0" /><path d="M242.5,57.5 m77.5,20.0 l25.0,16.25 11.25,10.0 l7.5,8.75 13.75,27.5 l0.0,37.5 -3.75,3.75 l-16.25,2.5 -70.0,0.0 l-12.5,2.5 -35.0,1.25 l-102.5,-1.25 -6.25,-2.5 l-25.0,-20.0 -2.5,0.0 l-3.75,-5.0 -6.25,-12.5 l-1.25,-7.5 0.0,-41.25 m55.0,-41.25 l-13.75,1.25 -13.75,-8.75 l-16.25,-17.5 -20.0,-6.25 l-15.0,0.0 -11.25,15.0 l-16.25,5.0 -1.25,2.5 l-11.25,3.75 -3.75,5.0 l1.25,11.25 7.5,0.0 l8.75,5.0 8.75,0.0 l7.5,10.0 16.25,1.25 l5.0,6.25 6.25,2.5 l0.0,2.5 5.0,1.25 m27.5,76.25 l0.0,55.0 10.0,-1.25 l0.0,-46.25 m226.25,2.5 l0.0,40.0 -13.75,0.0 l-2.5,-5.0 -1.25,-30.0 m0.0,-2.5 l0.0,3.75 m-233.75,-22.5 l1.25,42.5 11.25,0.0 l0.0,-7.5 -3.75,-10.0 l0.0,-21.25 m197.5,12.5 l0.0,25.0 11.25,0.0 l0.0,-23.75 -2.5,0.0 m-242.5,-142.5 l-8.75,0.0 m-41.25,21.25 l16.25,0.0 m-7.5,-12.5 l1.25,2.5 -2.5,0.0 l0.0,-2.5 2.5,0.0 l0.0,2.5 -5.0,0.0 l0.0,-2.5 2.5,0.0 l0.0,2.5 -2.5,0.0 l-2.5,-5.0 1.25,-1.25 m65.0,-7.5 l1.25,10.0 5.0,7.5 l5.0,21.25 1.25,15.0 m-5.0,-52.5 l5.0,15.0 0.0,7.5 l5.0,7.5 0.0,16.25 l-5.0,2.5 m-8.75,-46.25 l0.0,7.5 " fill="none" stroke="black" stroke-width="1" /></svg>